<?xml version="1.0" encoding="UTF-8" standalone="no"?><!DOCTYPE svg PUBLIC "-//W3C//DTD SVG 1.1//EN" "http://www.w3.org/Graphics/SVG/1.1/DTD/svg11.dtd"><svg width="100%" height="100%" viewBox="0 0 126 98" version="1.1" xmlns="http://www.w3.org/2000/svg" style="fill-rule:evenodd;clip-rule:evenodd;stroke-linejoin:round;stroke-miterlimit:2;"><g id="girar"><g><path d="M113.615,78.107l0,17.183l11,-0l0,-28.266c0.812,-1.482 0.91,-3.282 0.206,-4.871c-0.881,-1.99 -2.852,-3.274 -5.029,-3.274l-33.111,0l0,11l19.624,0c-12.46,10.673 -24.765,15.472 -36.254,16.571c-33.579,3.212 -59.666,-24.41 -59.666,-24.41l-7.972,7.579c-0,-0 30.093,31.473 68.685,27.781c13.414,-1.283 27.918,-6.723 42.517,-19.293Zm-101.039,-58.231l0,-17.182l-11,-0l0,28.266c-0.812,1.481 -0.909,3.282 -0.206,4.871c0.881,1.99 2.853,3.273 5.029,3.273l33.111,0l0,-11l-19.623,0c12.459,-10.672 24.764,-15.471 36.254,-16.57c33.578,-3.212 59.665,24.41 59.665,24.41l7.972,-7.579c0,0 -30.093,-31.473 -68.685,-27.781c-13.413,1.283 -27.917,6.723 -42.517,19.292Z" style="fill:#f9f5f3;"/></g></g></svg>