<?xml version="1.0" encoding="UTF-8" standalone="no"?><!DOCTYPE svg PUBLIC "-//W3C//DTD SVG 1.1//EN" "http://www.w3.org/Graphics/SVG/1.1/DTD/svg11.dtd"><svg width="100%" height="100%" viewBox="0 0 129 135" version="1.1" xmlns="http://www.w3.org/2000/svg" style="fill-rule:evenodd;clip-rule:evenodd;stroke-linejoin:round;stroke-miterlimit:2;"><g id="nogirar"><g><path d="M116.602,99.744l0,17.183l11,-0l0,-28.267c0.813,-1.481 0.91,-3.282 0.207,-4.87c-0.882,-1.991 -2.853,-3.274 -5.03,-3.274l-33.111,0l0,11l19.624,0c-12.46,10.673 -24.765,15.472 -36.254,16.571c-33.578,3.212 -59.665,-24.411 -59.665,-24.411l-7.973,7.579c0,0 30.094,31.474 68.685,27.782c13.414,-1.283 27.918,-6.723 42.517,-19.293Zm-101.038,-58.231l-0,-17.182l-11,-0l-0,28.266c-0.813,1.481 -0.91,3.282 -0.207,4.871c0.881,1.99 2.853,3.273 5.029,3.273l33.111,0l0,-11l-19.623,0c12.46,-10.673 24.764,-15.471 36.254,-16.571c33.578,-3.212 59.665,24.411 59.665,24.411l7.973,-7.579c-0,-0 -30.094,-31.473 -68.685,-27.782c-13.414,1.284 -27.918,6.723 -42.517,19.293Z" style="fill:#f9f5f3;"/></g><path d="M128.45,8.315l-7.828,-7.443l-120.304,126.51l7.828,7.443l120.304,-126.51Z" style="fill:#f9f5f3;"/></g></svg>